<svg width="38" height="41" viewBox="0 0 38 41" fill="none" xmlns="http://www.w3.org/2000/svg">
<path d="M10.1629 0.986084C8.47228 0.986084 7.06992 2.38844 7.06992 4.07903V5.40469H2.2093C1.00815 5.40469 0 6.41284 0 7.61399V38.5442C0 39.7454 1.00815 40.7535 2.2093 40.7535H35.7907C36.9918 40.7535 38 39.7454 38 38.5442V7.61399C38 6.41284 36.9918 5.40469 35.7907 5.40469H30.9301V4.07903C30.9301 2.38844 29.5277 0.986084 27.8371 0.986084C26.1465 0.986084 24.7442 2.38844 24.7442 4.07903V5.40469H13.2558V4.07903C13.2558 2.38844 11.8535 0.986084 10.1629 0.986084ZM10.1629 3.6374C10.4307 3.6374 10.6049 3.81154 10.6049 4.07939V9.38164C10.6049 9.64948 10.4307 9.82362 10.1629 9.82362C9.89502 9.82362 9.72088 9.64948 9.72088 9.38164V4.07939C9.72088 3.81155 9.89502 3.6374 10.1629 3.6374ZM27.8373 3.6374C28.1051 3.6374 28.2793 3.81154 28.2793 4.07939V9.38164C28.2793 9.64948 28.1051 9.82362 27.8373 9.82362C27.5694 9.82362 27.3953 9.64948 27.3953 9.38164V4.07939C27.3953 3.81155 27.5694 3.6374 27.8373 3.6374ZM2.65124 8.05601H7.06985V9.38167C7.06985 11.0723 8.4722 12.4746 10.1628 12.4746C11.8534 12.4746 13.2557 11.0723 13.2557 9.38167V8.05601H24.7441V9.38167C24.7441 11.0723 26.1465 12.4746 27.8371 12.4746C29.5276 12.4746 30.93 11.0723 30.93 9.38167V8.05601H35.3486V15.1259H2.65093L2.65124 8.05601ZM2.65124 17.7769H35.3489V38.1025H2.65124V17.7769ZM12.814 26.6141C12.082 26.6141 11.4884 27.2078 11.4884 27.9398C11.4884 28.6718 12.0817 29.2655 12.814 29.2655H25.1861C25.9181 29.2655 26.5118 28.6718 26.5118 27.9398C26.5118 27.2078 25.9182 26.6141 25.1861 26.6141H12.814Z" fill="#DB0632"/>
</svg>
